<?xml version="1.0" encoding="UTF-8"?>
<svg xmlns="http://www.w3.org/2000/svg" xmlns:xlink="http://www.w3.org/1999/xlink" viewBox="0 0 25 25" width="25px" height="25px">
<g id="surface97609243">
<path style=" stroke:none;fill-rule:nonzero;fill:rgb(100%,81.960785%,49.803922%);fill-opacity:1;" d="M 8.195312 5 C 5.601562 5 4.082031 6.34375 3.636719 6.804688 C 3.546875 6.898438 3.5 7.019531 3.5 7.148438 L 3.5 19.453125 C 3.5 19.714844 3.71875 19.902344 3.949219 19.902344 C 4.035156 19.902344 4.121094 19.878906 4.199219 19.824219 C 5.003906 19.273438 6.4375 18.5 8.195312 18.5 C 9.890625 18.5 11.136719 19.25 11.839844 19.820312 C 12.035156 19.976562 12.265625 20.054688 12.5 20.054688 C 12.734375 20.054688 12.964844 19.976562 13.160156 19.820312 C 13.863281 19.25 15.109375 18.5 16.804688 18.5 C 18.5625 18.5 19.996094 19.273438 20.800781 19.824219 C 20.878906 19.878906 20.964844 19.902344 21.050781 19.902344 C 21.28125 19.902344 21.5 19.714844 21.5 19.453125 L 21.5 7.148438 C 21.5 7.019531 21.453125 6.898438 21.363281 6.804688 C 20.917969 6.34375 19.398438 5 16.804688 5 C 13.675781 5 12.5 6.566406 12.5 6.566406 C 12.5 6.566406 11.324219 5 8.195312 5 Z M 8.195312 5.5 C 10.621094 5.5 11.792969 6.574219 12.25 7.152344 L 12.25 19.40625 C 11.734375 18.960938 10.378906 18 8.195312 18 C 6.40625 18 4.941406 18.726562 4 19.359375 L 3.996094 7.152344 C 3.996094 7.152344 5.625 5.5 8.195312 5.5 Z M 16.804688 5.5 C 19.378906 5.5 21 7.148438 21 7.148438 L 21 19.359375 C 20.058594 18.726562 18.59375 18 16.804688 18 C 14.617188 18 13.261719 18.960938 12.75 19.40625 L 12.75 7.148438 C 13.214844 6.570312 14.390625 5.5 16.804688 5.5 Z M 16.804688 5.5 "/>
</g>
</svg>
